<svg xmlns="http://www.w3.org/2000/svg" xmlns:xlink="http://www.w3.org/1999/xlink" width="1889" zoomAndPan="magnify" viewBox="0 0 1417.5 1417.500002" height="1889" preserveAspectRatio="xMidYMid meet" version="1.0"><defs><clipPath id="f3cc1387de"><path d="M 281.128906 165 L 992 165 L 992 1193 L 281.128906 1193 Z M 281.128906 165 " clip-rule="nonzero"/></clipPath></defs><g clip-path="url(#f3cc1387de)"><path fill="#e9fff4" d="M 990.921875 497.773438 L 920.488281 497.773438 L 920.488281 242.011719 L 462.816406 242.011719 C 522.039062 276.546875 569.421875 306.703125 619.167969 332.214844 C 650.785156 348.433594 661.265625 370.304688 660.992188 405.199219 C 659.535156 563.285156 660.351562 721.554688 660.351562 879.640625 L 660.351562 941.414062 L 918.394531 941.414062 L 918.394531 744.058594 L 990.648438 744.058594 C 990.648438 823.601562 991.832031 901.417969 990.191406 979.230469 C 989.464844 1010.480469 965.957031 1017.953125 938.710938 1017.769531 C 864.542969 1017.316406 790.375 1017.589844 716.023438 1017.589844 L 660.082031 1017.589844 C 660.082031 1061.871094 661.355469 1102.78125 659.808594 1143.511719 C 658.074219 1190.707031 635.023438 1204.101562 594.386719 1181.050781 C 499.261719 1127.292969 404.136719 1073.441406 310.832031 1016.585938 C 296.253906 1007.75 282.769531 983.421875 282.589844 966.109375 C 280.855469 715.8125 281.769531 465.519531 281.128906 215.222656 C 281.128906 179.324219 297.167969 165.839844 330.789062 165.839844 C 533.703125 166.203125 736.617188 166.203125 939.53125 166.023438 C 966.683594 166.023438 990.101562 173.039062 990.464844 204.835938 C 991.742188 301.238281 990.921875 397.546875 990.921875 497.773438 " fill-opacity="1" fill-rule="nonzero"/></g><path fill="#e9fff4" d="M 1065.363281 671.714844 C 1003.496094 671.714844 947.824219 672.167969 892.152344 671.53125 C 845.683594 671.074219 819.078125 651.484375 822.628906 618.867188 C 827.003906 578.136719 855.613281 568.386719 891.148438 568.753906 C 946.914062 569.300781 1002.675781 568.84375 1065.269531 568.84375 C 1065.269531 540.960938 1064.453125 515.542969 1065.453125 490.210938 C 1067.003906 453.035156 1081.035156 443.832031 1109.554688 463.878906 C 1171.511719 507.707031 1232.105469 553.445312 1292.96875 598.730469 C 1312.105469 612.945312 1312.558594 628.617188 1292.96875 643.101562 C 1230.644531 689.027344 1168.597656 735.402344 1105.542969 780.140625 C 1079.484375 798.636719 1066.457031 784.878906 1065.542969 756.449219 C 1064.726562 730.574219 1065.269531 704.605469 1065.269531 671.714844 L 1065.363281 671.714844 " fill-opacity="1" fill-rule="nonzero"/></svg>