<svg xmlns="http://www.w3.org/2000/svg" xmlns:xlink="http://www.w3.org/1999/xlink" width="1889" zoomAndPan="magnify" viewBox="0 0 1417.5 1417.500002" height="1889" preserveAspectRatio="xMidYMid meet" version="1.0"><defs><clipPath id="62cf644c74"><path d="M 281.128906 165 L 992 165 L 992 1193 L 281.128906 1193 Z M 281.128906 165 " clip-rule="nonzero"/></clipPath></defs><g clip-path="url(#62cf644c74)"><path fill="#040606" d="M 990.847656 497.824219 L 920.421875 497.824219 L 920.421875 242.023438 L 462.796875 242.023438 C 522.015625 276.5625 569.390625 306.726562 619.132812 332.242188 C 650.75 348.460938 661.226562 370.332031 660.953125 405.234375 C 659.496094 563.34375 660.316406 721.636719 660.316406 879.742188 L 660.316406 941.527344 L 918.328125 941.527344 L 918.328125 744.144531 L 990.574219 744.144531 C 990.574219 823.699219 991.757812 901.523438 990.121094 979.347656 C 989.390625 1010.605469 965.886719 1018.078125 938.644531 1017.894531 C 864.484375 1017.4375 790.324219 1017.710938 715.980469 1017.710938 L 660.042969 1017.710938 C 660.042969 1062 661.316406 1102.917969 659.769531 1143.652344 C 658.035156 1190.859375 634.988281 1204.253906 594.355469 1181.199219 C 499.238281 1127.433594 404.125 1073.574219 310.832031 1016.710938 C 296.253906 1007.871094 282.769531 983.539062 282.585938 966.226562 C 280.855469 715.894531 281.769531 465.5625 281.128906 215.234375 C 281.128906 179.328125 297.164062 165.839844 330.78125 165.839844 C 533.675781 166.207031 736.570312 166.207031 939.464844 166.023438 C 966.613281 166.023438 990.027344 173.039062 990.394531 204.84375 C 991.667969 301.257812 990.847656 397.582031 990.847656 497.824219 " fill-opacity="1" fill-rule="nonzero"/></g><path fill="#040606" d="M 1065.28125 671.789062 C 1003.421875 671.789062 947.753906 672.242188 892.089844 671.605469 C 845.625 671.148438 819.023438 651.558594 822.574219 618.933594 C 826.949219 578.199219 855.554688 568.449219 891.085938 568.8125 C 946.84375 569.359375 1002.601562 568.902344 1065.191406 568.902344 C 1065.191406 541.019531 1064.371094 515.59375 1065.375 490.257812 C 1066.921875 453.078125 1080.953125 443.875 1109.46875 463.921875 C 1171.421875 507.757812 1232.007812 553.503906 1292.867188 598.792969 C 1312 613.011719 1312.453125 628.683594 1292.867188 643.171875 C 1230.550781 689.101562 1168.503906 735.488281 1105.460938 780.230469 C 1079.402344 798.730469 1066.375 784.96875 1065.464844 756.539062 C 1064.644531 730.65625 1065.191406 704.683594 1065.191406 671.789062 L 1065.28125 671.789062 " fill-opacity="1" fill-rule="nonzero"/></svg>