<svg xmlns="http://www.w3.org/2000/svg" xmlns:xlink="http://www.w3.org/1999/xlink" width="1889" zoomAndPan="magnify" viewBox="0 0 1417.5 1417.500002" height="1889" preserveAspectRatio="xMidYMid meet" version="1.0"><path fill="#ce749f" d="M 492.660156 445.988281 L 432.886719 544.523438 L 605.5 604.867188 L 624.453125 539.273438 Z M 492.660156 445.988281 " fill-opacity="1" fill-rule="nonzero"/><path fill="#ce749f" d="M 57.035156 690.570312 L 51.496094 725.84375 L 146.261719 788.230469 L 303.421875 722.636719 L 296.425781 658.796875 Z M 57.035156 690.570312 " fill-opacity="1" fill-rule="nonzero"/><path fill="#ce749f" d="M 298.757812 792.019531 C 298.757812 792.019531 286.21875 827.875 289.71875 838.078125 C 293.21875 848.28125 364.070312 946.816406 370.777344 943.316406 C 377.777344 939.820312 469.042969 894.34375 469.042969 894.34375 L 510.738281 948.855469 C 510.738281 948.855469 645.15625 882.972656 653.613281 872.476562 C 662.070312 861.984375 660.609375 805.136719 660.609375 805.136719 Z M 298.757812 792.019531 " fill-opacity="1" fill-rule="nonzero"/><path fill="#ec9f0d" d="M 651.269531 667.378906 C 624.6875 667.792969 599.121094 676.898438 584.816406 693.003906 C 577.804688 700.898438 574.261719 709.683594 574.269531 718.554688 L 574.308594 743.226562 C 574.234375 747.628906 575.140625 752.125 577.058594 756.445312 C 582.460938 769.558594 595.570312 780.710938 613.792969 787.550781 C 631.855469 794.328125 653.433594 796.191406 673.601562 792.679688 C 693.773438 789.164062 710.933594 780.644531 721.453125 768.800781 C 728.652344 760.695312 731.941406 751.957031 732 743.25 L 731.960938 718.578125 C 731.945312 700.839844 717.824219 683.628906 692.570312 674.148438 C 679.277344 669.4375 665.257812 667.226562 651.269531 667.378906 Z M 651.269531 667.378906 " fill-opacity="1" fill-rule="nonzero"/><path fill="#e58c00" d="M 692.226562 674.296875 C 729.949219 688.453125 742.851562 719.753906 721.074219 744.273438 C 699.292969 768.796875 651.136719 777.183594 613.414062 763.027344 C 575.6875 748.867188 562.785156 717.566406 584.566406 693.046875 C 606.503906 668.589844 654.660156 660.199219 692.226562 674.296875 Z M 692.226562 674.296875 " fill-opacity="1" fill-rule="nonzero"/><path fill="#e58c00" d="M 592.726562 691.539062 L 592.765625 776.195312 C 594.378906 777.492188 596.25 778.75 598.117188 780.003906 L 598.171875 691.644531 Z M 603.394531 691.523438 L 603.386719 782.953125 C 605.121094 783.878906 606.945312 784.703125 608.773438 785.527344 L 608.773438 691.464844 Z M 614.222656 691.570312 L 614.179688 787.832031 C 615.941406 788.492188 617.789062 789.050781 619.640625 789.605469 L 619.601562 691.511719 Z M 624.984375 691.453125 L 625.058594 790.945312 C 626.839844 791.335938 628.625 791.730469 630.40625 792.121094 L 630.363281 691.394531 Z M 635.8125 691.5 L 635.847656 793.195312 C 637.5625 793.421875 639.4375 793.710938 641.246094 793.835938 L 641.257812 691.605469 Z M 646.480469 691.484375 L 646.511719 794.148438 C 648.316406 794.273438 650.058594 794.230469 651.867188 794.355469 L 651.769531 691.53125 Z M 657.308594 691.53125 L 657.246094 794.296875 C 658.988281 794.257812 660.820312 794.113281 662.652344 793.972656 L 662.6875 691.472656 Z M 667.976562 691.519531 L 667.988281 793.480469 C 669.660156 793.277344 671.585938 793.03125 673.191406 792.664062 C 673.191406 792.664062 673.191406 792.664062 673.441406 792.617188 L 673.515625 691.519531 Z M 678.804688 691.566406 L 678.832031 791.59375 C 680.6875 791.179688 682.386719 790.710938 684.242188 790.296875 L 684.253906 691.667969 Z M 689.566406 691.445312 L 689.542969 788.410156 C 691.332031 787.835938 693.214844 787.15625 694.9375 786.414062 L 694.855469 691.492188 Z M 700.394531 691.492188 L 700.449219 784.050781 C 702.355469 783.105469 704.007812 782.203125 705.847656 781.089844 L 705.773438 691.433594 Z M 711.0625 691.480469 L 711.046875 777.636719 C 712.910156 776.261719 714.773438 774.882812 716.316406 773.382812 L 716.351562 691.523438 Z M 585.1875 692.589844 C 585.09375 692.691406 585 692.796875 584.816406 693.003906 C 582.878906 695.1875 581.261719 697.488281 579.800781 699.847656 L 579.765625 762.035156 C 581.191406 764.507812 583.121094 766.894531 585.144531 769.179688 Z M 721.921875 693.890625 L 721.964844 767.746094 C 724.019531 765.191406 725.914062 762.578125 727.398438 759.949219 L 727.316406 701.734375 C 725.824219 699.097656 724.078125 696.503906 721.921875 693.890625 Z M 721.921875 693.890625 " fill-opacity="1" fill-rule="nonzero"/><path fill="#f6bd21" d="M 692.214844 674.253906 C 729.9375 688.410156 742.84375 719.714844 721.0625 744.234375 C 699.285156 768.753906 651.125 777.140625 613.402344 762.984375 C 575.679688 748.828125 562.777344 717.523438 584.554688 693.003906 C 606.496094 668.546875 654.652344 660.160156 692.214844 674.253906 Z M 692.214844 674.253906 " fill-opacity="1" fill-rule="nonzero"/><path fill="#f9e05e" d="M 587.550781 690.113281 L 618.15625 764.351562 C 624.253906 766.363281 630.90625 767.75 637.769531 768.664062 L 601.21875 680.003906 C 595.980469 683.023438 591.539062 686.34375 587.550781 690.113281 Z M 642.03125 667.890625 L 682.429688 765.890625 C 687.933594 764.492188 693.144531 762.707031 698.058594 760.535156 L 659.75 667.613281 C 653.664062 667.269531 647.78125 667.414062 642.03125 667.890625 Z M 642.03125 667.890625 " fill-opacity="1" fill-rule="nonzero"/><path fill="#e58c00" d="M 653.042969 768.023438 C 641.046875 768.09375 628.835938 766.003906 617.488281 761.746094 C 598.144531 754.488281 584.929688 741.769531 581.253906 726.953125 C 578.289062 715.175781 581.808594 703.058594 590.757812 692.980469 C 610.96875 670.226562 653.765625 662.597656 688.132812 675.492188 C 707.472656 682.75 720.6875 695.46875 724.269531 710.390625 C 727.234375 722.167969 723.71875 734.285156 714.765625 744.363281 C 701.453125 759.59375 677.769531 768.019531 653.042969 768.023438 Z M 652.832031 681.640625 C 631.75 681.625 611.417969 688.679688 600.183594 701.085938 C 593.90625 708.152344 591.609375 716.015625 593.617188 723.835938 C 596.335938 734.691406 606.617188 744.230469 622.121094 750.046875 C 651.535156 761.085938 689.078125 754.808594 705.78125 736.003906 C 712.054688 728.941406 714.355469 721.074219 712.347656 713.257812 C 709.628906 702.402344 699.34375 692.863281 683.839844 687.042969 C 674.089844 683.382812 663.25 681.671875 652.832031 681.640625 Z M 652.832031 681.640625 " fill-opacity="1" fill-rule="nonzero"/><path fill="#ffb5d1" d="M 948.695312 434.328125 C 763.832031 517.703125 727.964844 675.996094 751.875 780.359375 C 775.785156 884.722656 886.003906 902.503906 886.003906 902.503906 L 951.609375 872.769531 L 996.222656 935.445312 L 1094.777344 932.53125 L 1130.640625 887.929688 L 1229.195312 905.710938 C 1229.195312 905.710938 1345.535156 861.109375 1381.402344 732.839844 C 1416.972656 604.28125 1306.757812 299.9375 948.695312 434.328125 Z M 948.695312 434.328125 " fill-opacity="1" fill-rule="nonzero"/><path fill="#1e1c31" d="M 944.027344 593.496094 C 941.988281 592.332031 939.363281 591.746094 937.03125 592.332031 C 932.074219 593.496094 928.867188 598.742188 930.324219 603.699219 L 935.863281 625.855469 L 913.703125 631.394531 C 908.746094 632.558594 905.539062 637.808594 906.996094 642.761719 C 908.457031 647.71875 913.414062 650.925781 918.371094 649.46875 L 940.53125 643.929688 L 946.070312 666.085938 C 947.234375 671.039062 952.484375 674.246094 957.441406 672.789062 C 962.398438 671.625 965.605469 666.375 964.148438 661.421875 L 958.609375 639.265625 L 980.769531 633.726562 C 985.726562 632.558594 988.933594 627.3125 987.472656 622.355469 C 986.308594 617.402344 981.058594 614.195312 976.101562 615.652344 L 953.941406 621.191406 L 948.402344 599.035156 C 947.820312 596.703125 946.070312 594.664062 944.027344 593.496094 Z M 944.027344 593.496094 " fill-opacity="1" fill-rule="nonzero"/><path fill="#1e1c31" d="M 1149.886719 494.964844 C 1147.84375 493.796875 1145.21875 493.214844 1142.886719 493.796875 C 1137.929688 494.964844 1134.722656 500.210938 1136.179688 505.167969 L 1141.722656 527.320312 L 1119.5625 532.859375 C 1114.605469 534.027344 1111.398438 539.273438 1112.855469 544.230469 C 1114.019531 549.1875 1119.269531 552.390625 1124.226562 550.933594 L 1146.386719 545.394531 L 1151.925781 567.550781 C 1153.09375 572.507812 1158.339844 575.714844 1163.296875 574.257812 C 1168.253906 573.089844 1171.460938 567.84375 1170.003906 562.886719 L 1164.464844 540.730469 L 1186.625 535.191406 C 1191.582031 534.027344 1194.789062 528.78125 1193.332031 523.824219 C 1191.875 518.867188 1186.917969 515.660156 1181.960938 517.117188 L 1159.800781 522.65625 L 1154.257812 500.503906 C 1153.675781 498.171875 1151.925781 496.128906 1149.886719 494.964844 Z M 1149.886719 494.964844 " fill-opacity="1" fill-rule="nonzero"/><path fill="#ffb5d1" d="M 840.226562 520.910156 C 840.226562 520.910156 727.964844 485.050781 674.316406 532.570312 C 707.265625 678.621094 796.488281 693.488281 796.488281 693.488281 Z M 840.226562 520.910156 " fill-opacity="1" fill-rule="nonzero"/><path fill="#ffb5d1" d="M 1071.15625 422.375 C 1071.15625 422.375 1083.113281 344.832031 1145.804688 327.050781 C 1241.152344 392.640625 1232.402344 458.230469 1232.402344 458.230469 Z M 1071.15625 422.375 " fill-opacity="1" fill-rule="nonzero"/><path fill="#f497bf" d="M 787.742188 645.96875 C 808.734375 601.367188 829.4375 553.558594 829.4375 553.558594 C 829.4375 553.558594 775.785156 508.957031 707.265625 547.726562 C 707.265625 547.4375 760.914062 619.148438 787.742188 645.96875 Z M 787.742188 645.96875 " fill-opacity="1" fill-rule="nonzero"/><path fill="#f497bf" d="M 1139.679688 359.699219 L 1097.984375 422.375 L 1208.203125 431.414062 C 1208.203125 431.121094 1184.582031 365.53125 1139.679688 359.699219 Z M 1139.679688 359.699219 " fill-opacity="1" fill-rule="nonzero"/><path fill="#f497bf" d="M 1214.324219 586.207031 C 1076.988281 634.015625 990.679688 675.703125 1020.421875 761.992188 C 1050.164062 848.28125 1166.503906 839.535156 1256.019531 785.898438 C 1345.535156 732.257812 1294.800781 577.464844 1214.324219 586.207031 Z M 1214.324219 586.207031 " fill-opacity="1" fill-rule="nonzero"/><path fill="#d65196" d="M 1088.945312 678.621094 C 1076.988281 720.304688 1106.730469 788.8125 1130.640625 780.066406 C 1154.550781 771.03125 1139.679688 663.753906 1088.945312 678.621094 Z M 1088.945312 678.621094 " fill-opacity="1" fill-rule="nonzero"/><path fill="#d65196" d="M 1190.414062 645.96875 C 1178.460938 687.65625 1208.203125 756.164062 1232.113281 747.417969 C 1256.019531 738.378906 1241.152344 631.101562 1190.414062 645.96875 Z M 1190.414062 645.96875 " fill-opacity="1" fill-rule="nonzero"/><path fill="#ffb5d1" d="M 441.925781 622.066406 C 441.925781 622.066406 301.671875 750.332031 298.757812 792.019531 C 295.839844 833.707031 382.148438 911.25 382.148438 911.25 L 474.582031 851.488281 L 522.402344 908.042969 L 662.652344 851.488281 L 668.484375 684.449219 C 668.484375 684.742188 534.355469 610.113281 441.925781 622.066406 Z M 441.925781 622.066406 " fill-opacity="1" fill-rule="nonzero"/><path fill="#ffb5d1" d="M 304.589844 610.113281 L 310.421875 681.535156 L 146.261719 759.078125 C 146.261719 759.078125 44.789062 696.402344 56.746094 690.570312 C 68.992188 684.742188 224.113281 586.207031 304.589844 610.113281 Z M 304.589844 610.113281 " fill-opacity="1" fill-rule="nonzero"/><path fill="#ffb5d1" d="M 492.660156 445.988281 C 492.660156 445.988281 439.007812 526.449219 450.964844 523.53125 C 462.917969 520.617188 594.128906 583.292969 594.128906 571.339844 C 594.128906 559.390625 674.605469 464.0625 674.605469 464.0625 C 674.605469 464.0625 623.871094 416.253906 492.660156 445.988281 Z M 492.660156 445.988281 " fill-opacity="1" fill-rule="nonzero"/><path fill="#ec9f0d" d="M 395.667969 572.015625 C 414.171875 552.929688 425.808594 528.417969 424.535156 506.917969 C 423.910156 496.375 420.199219 487.664062 413.921875 481.398438 L 396.445312 463.976562 C 393.386719 460.808594 389.5625 458.273438 385.152344 456.570312 C 372.058594 451.121094 354.898438 452.503906 337.175781 460.550781 C 319.609375 468.527344 303.039062 482.460938 291.257812 499.203125 C 279.480469 515.949219 273.375 534.105469 274.3125 549.917969 C 274.953125 560.734375 278.808594 569.238281 284.925781 575.4375 L 302.402344 592.855469 C 314.957031 605.386719 337.117188 607.574219 361.675781 596.421875 C 374.417969 590.496094 386.042969 581.941406 395.667969 572.015625 Z M 395.667969 572.015625 " fill-opacity="1" fill-rule="nonzero"/><path fill="#e58c00" d="M 361.824219 596.214844 C 325.136719 612.871094 293.875 599.859375 291.933594 567.125 C 289.992188 534.390625 318.113281 494.417969 354.800781 477.761719 C 391.488281 461.101562 422.75 474.113281 424.691406 506.847656 C 426.632812 539.582031 398.511719 579.554688 361.824219 596.214844 Z M 361.824219 596.214844 " fill-opacity="1" fill-rule="nonzero"/><path fill="#e58c00" d="M 420.132812 513.472656 L 360.234375 453.640625 C 358.171875 453.867188 355.964844 454.300781 353.753906 454.734375 L 416.207031 517.25 Z M 412.445312 521.097656 L 347.789062 456.445312 C 345.90625 457.015625 344.035156 457.722656 342.160156 458.429688 L 408.683594 524.941406 Z M 404.917969 528.785156 L 336.867188 460.691406 C 335.15625 461.46875 333.453125 462.382812 331.753906 463.296875 L 400.992188 532.5625 Z M 397.230469 536.410156 L 326.8125 466.113281 C 325.273438 467.09375 323.734375 468.078125 322.199219 469.0625 L 393.464844 540.253906 Z M 389.695312 543.960938 L 317.746094 472.078125 C 316.371094 473.128906 314.84375 474.253906 313.476562 475.441406 L 385.769531 547.738281 Z M 382.007812 551.582031 L 309.378906 479.011719 C 308.011719 480.203125 306.808594 481.460938 305.441406 482.652344 L 378.234375 555.289062 Z M 374.472656 559.132812 L 301.835938 486.425781 C 300.632812 487.683594 299.4375 489.082031 298.246094 490.476562 L 370.710938 562.980469 Z M 366.78125 566.757812 L 294.660156 494.667969 C 293.625 495.996094 292.4375 497.53125 291.5625 498.925781 C 291.5625 498.925781 291.5625 498.925781 291.414062 499.132812 L 362.863281 570.671875 Z M 359.257812 574.445312 L 288.496094 503.734375 C 287.472656 505.339844 286.605469 506.875 285.582031 508.476562 L 355.332031 578.222656 Z M 351.566406 582.070312 L 283.007812 513.492188 C 282.148438 515.164062 281.296875 516.976562 280.601562 518.714844 L 347.796875 585.773438 Z M 343.878906 589.691406 L 278.378906 524.28125 C 277.699219 526.300781 277.167969 528.109375 276.65625 530.195312 L 340.113281 593.535156 Z M 336.34375 597.242188 L 275.421875 536.308594 C 275.078125 538.601562 274.734375 540.894531 274.703125 543.042969 L 332.574219 600.949219 Z M 424.722656 507.402344 C 424.714844 507.261719 424.707031 507.125 424.691406 506.847656 C 424.515625 503.933594 424.035156 501.164062 423.394531 498.460938 L 379.441406 454.464844 C 376.683594 453.722656 373.628906 453.398438 370.585938 453.214844 Z M 326.960938 603.214844 L 274.695312 551.023438 C 275.050781 554.28125 275.558594 557.46875 276.367188 560.378906 L 317.597656 601.480469 C 320.519531 602.292969 323.746094 602.820312 326.960938 603.214844 Z M 326.960938 603.214844 " fill-opacity="1" fill-rule="nonzero"/><path fill="#f6bd21" d="M 361.851562 596.09375 C 325.164062 612.753906 293.902344 599.742188 291.960938 567.007812 C 290.019531 534.273438 318.140625 494.300781 354.828125 477.640625 C 391.515625 460.984375 422.777344 473.992188 424.71875 506.726562 C 426.503906 539.53125 398.539062 579.4375 361.851562 596.09375 Z M 361.851562 596.09375 " fill-opacity="1" fill-rule="nonzero"/><path fill="#f9e05e" d="M 424.652344 511.03125 L 350.507812 480.171875 C 344.773438 483.0625 339.085938 486.78125 333.589844 490.988281 L 422.136719 527.839844 C 423.707031 522 424.648438 516.304688 424.652344 511.03125 Z M 401.839844 565.117188 L 303.960938 524.382812 C 301.058594 529.261719 298.636719 534.207031 296.699219 539.21875 L 389.503906 577.839844 C 394.054688 573.78125 398.117188 569.65625 401.839844 565.117188 Z M 401.839844 565.117188 " fill-opacity="1" fill-rule="nonzero"/><path fill="#e58c00" d="M 335.691406 599.140625 C 327.550781 599.132812 319.941406 597.320312 313.648438 593.484375 C 303.21875 587.25 297.144531 576.332031 296.339844 562.742188 C 294.539062 532.363281 319.402344 496.71875 352.824219 481.542969 C 371.632812 473 389.972656 472.652344 403.050781 480.527344 C 413.476562 486.761719 419.550781 497.679688 420.359375 511.269531 C 422.160156 541.648438 397.292969 577.292969 363.871094 592.46875 C 354.078125 596.917969 344.472656 599.140625 335.691406 599.140625 Z M 381.097656 487.222656 C 374.078125 487.273438 366.207031 489.140625 357.964844 492.882812 C 329.363281 505.867188 307.253906 536.847656 308.753906 562.089844 C 309.3125 571.523438 313.25 578.707031 320.199219 582.816406 C 329.796875 588.570312 343.816406 588.046875 358.894531 581.199219 C 387.496094 568.210938 409.605469 537.234375 408.109375 511.988281 C 407.550781 502.558594 403.609375 495.371094 396.664062 491.261719 C 392.195312 488.59375 386.851562 487.316406 381.097656 487.222656 Z M 381.097656 487.222656 " fill-opacity="1" fill-rule="nonzero"/><path fill="#ec9f0d" d="M 657.964844 471.28125 C 638.875 452.78125 614.355469 441.148438 592.851562 442.421875 C 582.308594 443.046875 573.59375 446.753906 567.324219 453.03125 L 549.902344 470.503906 C 546.734375 473.566406 544.195312 477.386719 542.496094 481.796875 C 537.042969 494.886719 538.425781 512.042969 546.472656 529.761719 C 554.453125 547.320312 568.390625 563.890625 585.136719 575.667969 C 601.882812 587.441406 620.042969 593.546875 635.859375 592.609375 C 646.683594 591.96875 655.1875 588.113281 661.386719 582 L 678.808594 564.527344 C 691.34375 551.976562 693.53125 529.820312 682.375 505.265625 C 676.449219 492.527344 667.890625 480.90625 657.964844 471.28125 Z M 657.964844 471.28125 " fill-opacity="1" fill-rule="nonzero"/><path fill="#e58c00" d="M 682.167969 505.117188 C 698.828125 541.796875 685.816406 573.050781 653.074219 574.992188 C 620.332031 576.933594 580.351562 548.820312 563.6875 512.140625 C 547.027344 475.460938 560.039062 444.207031 592.78125 442.265625 C 625.59375 440.480469 665.578125 468.59375 682.167969 505.117188 Z M 682.167969 505.117188 " fill-opacity="1" fill-rule="nonzero"/><path fill="#e58c00" d="M 599.546875 446.8125 L 539.703125 506.699219 C 539.925781 508.761719 540.359375 510.96875 540.792969 513.179688 L 603.324219 450.738281 Z M 607.171875 454.5 L 542.507812 519.140625 C 543.074219 521.023438 543.785156 522.898438 544.492188 524.769531 L 611.019531 458.261719 Z M 614.796875 462.1875 L 546.6875 530.226562 C 547.460938 531.9375 548.378906 533.636719 549.292969 535.339844 L 618.640625 465.949219 Z M 622.347656 469.722656 L 552.035156 540.125 C 553.019531 541.660156 554.003906 543.199219 554.988281 544.738281 L 626.195312 473.484375 Z M 629.972656 477.410156 L 558.078125 549.339844 C 559.128906 550.714844 560.25 552.246094 561.441406 553.609375 L 633.75 481.335938 Z M 637.664062 484.933594 L 565.078125 557.542969 C 566.269531 558.910156 567.527344 560.113281 568.71875 561.480469 L 641.371094 488.703125 Z M 645.289062 492.621094 L 572.566406 565.242188 C 573.824219 566.441406 575.222656 567.636719 576.617188 568.832031 L 649.136719 496.382812 Z M 652.84375 500.152344 L 580.738281 572.257812 C 582.066406 573.296875 583.601562 574.480469 584.996094 575.355469 C 584.996094 575.355469 584.996094 575.355469 585.136719 575.347656 L 656.6875 503.914062 Z M 660.464844 507.839844 L 589.742188 578.585938 C 591.34375 579.609375 592.878906 580.476562 594.484375 581.496094 L 664.246094 511.765625 Z M 668.019531 515.371094 L 599.429688 583.917969 C 601.101562 584.777344 602.910156 585.625 604.652344 586.320312 L 671.726562 519.144531 Z M 675.644531 523.0625 L 610.222656 588.542969 C 612.238281 589.222656 614.046875 589.753906 616.132812 590.269531 L 679.488281 526.824219 Z M 683.335938 530.585938 L 622.386719 591.496094 C 624.679688 591.835938 626.972656 592.179688 629.125 592.210938 L 687.042969 534.355469 Z M 593.40625 442.390625 C 593.269531 442.398438 593.128906 442.40625 592.851562 442.421875 C 589.9375 442.59375 587.167969 443.078125 584.464844 443.71875 L 540.457031 487.664062 C 539.714844 490.417969 539.394531 493.472656 539.207031 496.515625 Z M 689.167969 539.976562 L 636.96875 592.226562 C 640.226562 591.875 643.414062 591.367188 646.324219 590.554688 L 687.4375 549.335938 C 688.386719 546.40625 688.988281 543.335938 689.167969 539.976562 Z M 689.167969 539.976562 " fill-opacity="1" fill-rule="nonzero"/><path fill="#f6bd21" d="M 682.191406 505.082031 C 698.851562 541.761719 685.839844 573.015625 653.097656 574.957031 C 620.355469 576.898438 580.371094 548.785156 563.710938 512.105469 C 547.046875 475.425781 560.0625 444.171875 592.804688 442.230469 C 625.617188 440.445312 665.597656 468.558594 682.191406 505.082031 Z M 682.191406 505.082031 " fill-opacity="1" fill-rule="nonzero"/><path fill="#f9e05e" d="M 596.96875 442.304688 L 566.101562 516.433594 C 568.992188 522.167969 572.714844 527.851562 576.921875 533.347656 L 613.78125 444.816406 C 607.941406 443.25 602.242188 442.308594 596.96875 442.304688 Z M 651.066406 465.109375 L 610.324219 562.96875 C 615.203125 565.871094 620.148438 568.289062 625.089844 570.074219 L 663.722656 477.289062 C 659.871094 472.890625 655.605469 468.832031 651.066406 465.109375 Z M 651.066406 465.109375 " fill-opacity="1" fill-rule="nonzero"/><path fill="#e58c00" d="M 645.636719 570.769531 C 616.003906 570.769531 582.160156 546.441406 567.472656 514.117188 C 558.929688 495.3125 558.582031 476.976562 566.460938 463.902344 C 572.695312 453.476562 583.679688 447.242188 597.140625 446.441406 C 627.523438 444.640625 663.175781 469.5 678.355469 502.914062 C 686.898438 521.722656 687.25 540.054688 679.367188 553.128906 C 673.132812 563.554688 662.148438 569.792969 648.691406 570.589844 C 647.789062 570.800781 646.679688 570.867188 645.636719 570.769531 Z M 600.429688 459.015625 C 599.597656 459.066406 598.902344 459.105469 598.070312 459.15625 C 588.636719 459.714844 581.449219 463.652344 577.339844 470.597656 C 571.582031 480.195312 572.109375 494.210938 578.957031 509.285156 C 591.945312 537.882812 622.929688 559.988281 648.042969 558.496094 C 657.476562 557.9375 664.664062 554 668.773438 547.054688 C 674.527344 537.457031 674.003906 523.441406 667.15625 508.367188 C 654.519531 480.546875 625.066406 458.992188 600.429688 459.015625 Z M 600.429688 459.015625 " fill-opacity="1" fill-rule="nonzero"/><path fill="#ce749f" d="M 761.207031 435.785156 L 755.082031 469.601562 L 841.683594 478.636719 L 990.679688 392.058594 L 990.679688 368.738281 C 964.730469 364.945312 853.054688 421.792969 761.207031 435.785156 Z M 761.207031 435.785156 " fill-opacity="1" fill-rule="nonzero"/><path fill="#ffb5d1" d="M 799.695312 371.652344 L 755.082031 446.28125 L 841.683594 455.316406 L 990.679688 368.738281 C 990.679688 368.738281 937.03125 350.664062 799.695312 371.652344 Z M 799.695312 371.652344 " fill-opacity="1" fill-rule="nonzero"/><path fill="#ce749f" d="M 173.378906 437.242188 C 173.378906 437.242188 172.210938 460.273438 170.460938 479.222656 C 168.710938 498.171875 199.910156 569.007812 199.910156 569.007812 L 338.121094 532.859375 L 319.167969 462.023438 Z M 173.378906 437.242188 " fill-opacity="1" fill-rule="nonzero"/><path fill="#ffb5d1" d="M 173.378906 437.242188 L 203.117188 544.523438 L 334.332031 508.664062 L 316.542969 401.386719 C 316.542969 401.386719 256.769531 371.652344 173.378906 437.242188 Z M 173.378906 437.242188 " fill-opacity="1" fill-rule="nonzero"/><path fill="#ec9f0d" d="M 722.902344 327.5 C 696.320312 327.914062 670.753906 337.019531 656.449219 353.125 C 649.4375 361.019531 645.898438 369.804688 645.90625 378.671875 L 645.941406 403.347656 C 645.867188 407.75 646.773438 412.246094 648.691406 416.566406 C 654.097656 429.679688 667.207031 440.832031 685.429688 447.671875 C 703.492188 454.449219 725.066406 456.3125 745.238281 452.800781 C 765.40625 449.285156 782.566406 440.765625 793.089844 428.921875 C 800.285156 420.816406 803.574219 412.074219 803.632812 403.371094 L 803.597656 378.699219 C 803.582031 360.960938 789.457031 343.75 764.203125 334.269531 C 751.003906 329.457031 736.734375 327.285156 722.902344 327.5 Z M 722.902344 327.5 " fill-opacity="1" fill-rule="nonzero"/><path fill="#e58c00" d="M 763.949219 334.3125 C 801.675781 348.472656 814.578125 379.773438 792.800781 404.292969 C 771.019531 428.8125 722.863281 437.199219 685.140625 423.042969 C 647.414062 408.886719 634.511719 377.585938 656.292969 353.066406 C 678.070312 328.542969 726.226562 320.15625 763.949219 334.3125 Z M 763.949219 334.3125 " fill-opacity="1" fill-rule="nonzero"/><path fill="#e58c00" d="M 664.199219 351.597656 L 664.238281 436.253906 C 665.855469 437.554688 667.722656 438.808594 669.59375 440.066406 L 669.648438 351.703125 Z M 675.027344 351.644531 L 675.019531 443.070312 C 676.753906 444 678.578125 444.824219 680.40625 445.648438 L 680.410156 351.585938 Z M 685.789062 351.527344 L 685.746094 447.789062 C 687.507812 448.449219 689.355469 449.007812 691.207031 449.5625 L 691.167969 351.46875 Z M 696.617188 351.574219 L 696.691406 451.066406 C 698.476562 451.457031 700.257812 451.851562 702.039062 452.242188 L 701.996094 351.515625 Z M 707.285156 351.558594 L 707.324219 453.253906 C 709.039062 453.484375 710.914062 453.769531 712.722656 453.894531 L 712.734375 351.664062 Z M 718.113281 351.605469 L 718.144531 454.269531 C 719.953125 454.390625 721.691406 454.351562 723.5 454.476562 L 723.402344 351.652344 Z M 728.78125 351.59375 L 728.71875 454.359375 C 730.460938 454.320312 732.292969 454.175781 734.125 454.03125 L 734.164062 351.535156 Z M 739.609375 351.640625 L 739.621094 453.601562 C 741.296875 453.398438 743.21875 453.148438 744.824219 452.78125 C 744.824219 452.78125 744.824219 452.78125 745.078125 452.738281 L 745.152344 351.640625 Z M 750.371094 351.523438 L 750.398438 451.550781 C 752.253906 451.136719 753.953125 450.667969 755.808594 450.253906 L 755.820312 351.625 Z M 761.199219 351.566406 L 761.179688 448.53125 C 762.96875 447.953125 764.847656 447.277344 766.570312 446.535156 L 766.488281 351.613281 Z M 772.027344 351.613281 L 772.082031 444.171875 C 773.988281 443.226562 775.644531 442.320312 777.480469 441.210938 L 777.410156 351.554688 Z M 782.695312 351.601562 L 782.679688 437.757812 C 784.542969 436.378906 786.40625 435 787.953125 433.503906 L 787.984375 351.644531 Z M 656.660156 352.648438 C 656.566406 352.753906 656.476562 352.855469 656.292969 353.0625 C 654.351562 355.246094 652.734375 357.546875 651.277344 359.910156 L 651.238281 422.097656 C 652.664062 424.570312 654.59375 426.957031 656.617188 429.238281 Z M 793.554688 354.011719 L 793.597656 427.863281 C 795.65625 425.3125 797.550781 422.699219 799.03125 420.070312 L 798.949219 361.855469 C 797.457031 359.21875 795.550781 356.5625 793.554688 354.011719 Z M 793.554688 354.011719 " fill-opacity="1" fill-rule="nonzero"/><path fill="#f6bd21" d="M 763.847656 334.375 C 801.574219 348.53125 814.476562 379.835938 792.695312 404.355469 C 770.917969 428.875 722.761719 437.261719 685.039062 423.105469 C 647.3125 408.949219 634.410156 377.644531 656.1875 353.125 C 678.128906 328.667969 726.125 320.21875 763.847656 334.375 Z M 763.847656 334.375 " fill-opacity="1" fill-rule="nonzero"/><path fill="#f9e05e" d="M 659.277344 350.128906 L 689.882812 424.367188 C 695.980469 426.378906 702.632812 427.769531 709.496094 428.679688 L 672.945312 340.019531 C 667.546875 342.980469 663.011719 346.40625 659.277344 350.128906 Z M 713.664062 328.011719 L 754.066406 426.011719 C 759.570312 424.613281 764.777344 422.828125 769.691406 420.65625 L 731.386719 327.734375 C 725.296875 327.390625 719.507812 327.433594 713.664062 328.011719 Z M 713.664062 328.011719 " fill-opacity="1" fill-rule="nonzero"/><path fill="#e58c00" d="M 724.675781 428.144531 C 712.679688 428.214844 700.46875 426.125 689.121094 421.867188 C 669.78125 414.609375 656.566406 401.890625 652.890625 387.074219 C 649.925781 375.296875 653.441406 363.175781 662.394531 353.101562 C 682.605469 330.347656 725.398438 322.71875 759.765625 335.613281 C 779.105469 342.871094 792.320312 355.589844 795.996094 370.40625 C 798.960938 382.183594 795.535156 394.199219 786.492188 404.378906 C 773.019531 419.550781 749.242188 428.082031 724.675781 428.144531 Z M 724.308594 341.703125 C 703.222656 341.6875 682.890625 348.738281 671.816406 361.207031 C 665.539062 368.273438 663.242188 376.136719 665.25 383.957031 C 667.96875 394.8125 678.25 404.351562 693.757812 410.167969 C 723.167969 421.207031 760.710938 414.929688 777.414062 396.125 C 783.691406 389.058594 785.988281 381.195312 783.980469 373.378906 C 781.261719 362.519531 770.980469 352.984375 755.472656 347.164062 C 745.722656 343.503906 734.976562 341.6875 724.308594 341.703125 Z M 724.308594 341.703125 " fill-opacity="1" fill-rule="nonzero"/><path fill="#ec9f0d" d="M 284.414062 649.546875 C 257.832031 649.960938 232.265625 659.070312 217.960938 675.171875 C 210.945312 683.070312 207.40625 691.855469 207.414062 700.722656 L 207.453125 725.394531 C 207.375 729.800781 208.285156 734.296875 210.199219 738.617188 C 215.605469 751.726562 228.714844 762.882812 246.9375 769.71875 C 265 776.5 286.578125 778.359375 306.746094 774.847656 C 326.917969 771.335938 344.078125 762.8125 354.597656 750.96875 C 361.796875 742.867188 365.085938 734.125 365.144531 725.421875 L 365.105469 700.75 C 365.089844 683.011719 350.96875 665.796875 325.710938 656.320312 C 312.511719 651.503906 298.242188 649.335938 284.414062 649.546875 Z M 284.414062 649.546875 " fill-opacity="1" fill-rule="nonzero"/><path fill="#e58c00" d="M 325.460938 656.363281 C 363.183594 670.519531 376.089844 701.820312 354.308594 726.339844 C 332.527344 750.859375 284.371094 759.25 246.648438 745.089844 C 208.925781 730.933594 196.019531 699.632812 217.800781 675.113281 C 239.738281 650.652344 287.898438 642.265625 325.460938 656.363281 Z M 325.460938 656.363281 " fill-opacity="1" fill-rule="nonzero"/><path fill="#e58c00" d="M 225.800781 673.542969 L 225.839844 758.199219 C 227.457031 759.5 229.324219 760.753906 231.195312 762.011719 L 231.25 673.648438 Z M 236.628906 673.589844 L 236.621094 765.015625 C 238.355469 765.945312 240.183594 766.769531 242.007812 767.59375 L 242.011719 673.53125 Z M 247.457031 673.636719 L 247.417969 769.898438 C 249.175781 770.558594 251.027344 771.117188 252.878906 771.671875 L 252.839844 673.578125 Z M 258.125 673.625 L 258.203125 773.117188 C 259.984375 773.507812 261.765625 773.898438 263.550781 774.292969 L 263.507812 673.566406 Z M 268.957031 673.667969 L 268.992188 775.363281 C 270.707031 775.59375 272.582031 775.878906 274.390625 776.003906 L 274.335938 673.609375 Z M 279.625 673.65625 L 279.652344 776.316406 C 281.460938 776.441406 283.203125 776.402344 285.007812 776.527344 L 284.910156 673.699219 Z M 290.542969 673.597656 L 290.480469 776.363281 C 292.222656 776.324219 294.054688 776.179688 295.886719 776.035156 L 295.925781 673.539062 Z M 301.214844 673.585938 L 301.226562 775.546875 C 302.898438 775.34375 304.824219 775.09375 306.425781 774.726562 C 306.425781 774.726562 306.425781 774.726562 306.679688 774.683594 L 306.753906 673.585938 Z M 312.042969 673.632812 L 312.066406 773.660156 C 313.921875 773.246094 315.621094 772.777344 317.476562 772.363281 L 317.488281 673.734375 Z M 322.710938 673.617188 L 322.6875 770.578125 C 324.476562 770.003906 326.359375 769.324219 328.082031 768.585938 L 327.996094 673.664062 Z M 333.539062 673.664062 L 333.589844 766.222656 C 335.5 765.273438 337.152344 764.371094 338.992188 763.261719 L 338.917969 673.605469 Z M 344.207031 673.648438 L 344.191406 759.808594 C 346.054688 758.429688 347.917969 757.050781 349.460938 755.554688 L 349.496094 673.695312 Z M 218.328125 674.757812 C 218.238281 674.863281 218.144531 674.964844 217.960938 675.171875 C 216.023438 677.355469 214.402344 679.65625 212.945312 682.019531 L 212.910156 744.207031 C 214.335938 746.679688 216.265625 749.066406 218.285156 751.347656 Z M 355.066406 676.0625 L 355.109375 749.914062 C 357.164062 747.359375 359.058594 744.746094 360.542969 742.117188 L 360.460938 683.90625 C 358.96875 681.265625 357.3125 678.570312 355.066406 676.0625 Z M 355.066406 676.0625 " fill-opacity="1" fill-rule="nonzero"/><path fill="#f6bd21" d="M 325.453125 656.320312 C 363.175781 670.476562 376.078125 701.78125 354.300781 726.300781 C 332.519531 750.820312 284.363281 759.207031 246.640625 745.050781 C 208.914062 730.894531 196.011719 699.589844 217.792969 675.070312 C 239.730469 650.613281 287.886719 642.226562 325.453125 656.320312 Z M 325.453125 656.320312 " fill-opacity="1" fill-rule="nonzero"/><path fill="#f9e05e" d="M 220.789062 672.179688 L 251.390625 746.417969 C 257.492188 748.429688 264.144531 749.816406 271.003906 750.730469 L 234.457031 662.070312 C 229.214844 665.089844 224.523438 668.453125 220.789062 672.179688 Z M 275.175781 650.058594 L 315.574219 748.0625 C 321.078125 746.664062 326.289062 744.878906 331.203125 742.707031 L 292.894531 649.785156 C 286.902344 649.335938 281.015625 649.480469 275.175781 650.058594 Z M 275.175781 650.058594 " fill-opacity="1" fill-rule="nonzero"/><path fill="#e58c00" d="M 286.28125 750.089844 C 274.28125 750.160156 262.070312 748.070312 250.722656 743.8125 C 231.382812 736.554688 218.167969 723.835938 214.492188 709.019531 C 211.527344 697.242188 214.882812 685.0625 223.835938 674.984375 C 244.046875 652.230469 286.839844 644.601562 321.207031 657.5 C 340.550781 664.757812 353.761719 677.476562 357.4375 692.292969 C 360.402344 704.070312 356.980469 716.085938 347.933594 726.265625 C 334.6875 741.660156 310.753906 750.132812 286.28125 750.089844 Z M 285.976562 663.8125 C 264.890625 663.796875 244.558594 670.847656 233.484375 683.316406 C 227.210938 690.382812 224.914062 698.246094 226.921875 706.066406 C 229.640625 716.921875 239.921875 726.460938 255.425781 732.277344 C 284.839844 743.316406 322.382812 737.039062 339.085938 718.234375 C 345.359375 711.167969 347.65625 703.304688 345.652344 695.488281 C 342.929688 684.628906 332.648438 675.09375 317.144531 669.273438 C 307.234375 665.554688 296.484375 663.738281 285.976562 663.8125 Z M 285.976562 663.8125 " fill-opacity="1" fill-rule="nonzero"/><path fill="#ec9f0d" d="M 500.792969 580.839844 C 475.007812 574.363281 447.957031 576.542969 429.96875 588.398438 C 421.152344 594.210938 415.457031 601.777344 413.167969 610.347656 L 406.816406 634.1875 C 405.605469 638.421875 405.316406 643 406.050781 647.671875 C 407.875 661.734375 417.652344 675.898438 433.484375 687.21875 C 449.175781 698.441406 469.535156 705.824219 489.925781 707.648438 C 510.320312 709.476562 529.101562 705.683594 542.328125 696.96875 C 551.378906 691 556.816406 683.410156 559.128906 675.015625 L 565.480469 651.175781 C 570.058594 634.039062 560.871094 613.757812 538.929688 598.066406 C 527.429688 590 514.203125 584.214844 500.792969 580.839844 Z M 500.792969 580.839844 " fill-opacity="1" fill-rule="nonzero"/><path fill="#e58c00" d="M 538.675781 598.046875 C 571.449219 621.480469 575.808594 655.054688 548.425781 673.101562 C 521.039062 691.152344 472.351562 686.792969 439.578125 663.355469 C 406.808594 639.921875 402.445312 606.347656 429.832031 588.300781 C 457.355469 570.351562 506.042969 574.710938 538.675781 598.046875 Z M 538.675781 598.046875 " fill-opacity="1" fill-rule="nonzero"/><path fill="#e58c00" d="M 437.847656 588.929688 L 415.96875 670.710938 C 417.195312 672.382812 418.675781 674.082031 420.15625 675.777344 L 443.085938 590.441406 Z M 448.414062 591.699219 L 424.738281 680.007812 C 426.171875 681.351562 427.722656 682.621094 429.273438 683.890625 L 453.625 593.035156 Z M 458.859375 594.546875 L 433.898438 687.519531 C 435.425781 688.609375 437.070312 689.625 438.714844 690.640625 L 464.074219 595.882812 Z M 469.167969 597.292969 L 443.484375 693.414062 C 445.105469 694.253906 446.726562 695.09375 448.347656 695.933594 L 474.382812 598.628906 Z M 479.617188 600.140625 L 453.324219 698.378906 C 454.921875 699.042969 456.660156 699.808594 458.375 700.394531 L 484.851562 601.652344 Z M 489.925781 602.886719 L 463.375 702.058594 C 465.089844 702.644531 466.78125 703.058594 468.496094 703.644531 L 495.019531 604.300781 Z M 500.371094 605.734375 L 473.707031 704.980469 C 475.398438 705.394531 477.207031 705.730469 479.011719 706.066406 L 505.585938 607.070312 Z M 510.796875 608.40625 L 484.410156 706.894531 C 486.078125 707.132812 488.003906 707.390625 489.648438 707.453125 C 489.648438 707.453125 489.648438 707.453125 489.902344 707.472656 L 516.148438 609.839844 Z M 521.242188 611.25 L 495.371094 707.878906 C 497.273438 707.960938 499.035156 707.945312 500.933594 708.027344 L 526.480469 612.761719 Z M 531.550781 614 L 506.429688 707.652344 C 508.304688 707.558594 510.300781 707.390625 512.15625 707.121094 L 536.648438 615.410156 Z M 542 616.847656 L 518.089844 706.261719 C 520.175781 705.839844 522.007812 705.398438 524.074219 704.800781 L 547.210938 618.179688 Z M 552.308594 619.59375 L 529.988281 702.8125 C 532.144531 701.960938 534.300781 701.113281 536.179688 700.066406 L 557.40625 621.003906 Z M 430.433594 588.09375 C 430.316406 588.167969 430.203125 588.246094 429.96875 588.398438 C 427.53125 590.003906 425.375 591.808594 423.355469 593.710938 L 407.21875 653.769531 C 407.957031 656.527344 409.203125 659.332031 410.5625 662.0625 Z M 562.171875 624.734375 L 543.09375 696.082031 C 545.742188 694.144531 548.25 692.109375 550.363281 689.957031 L 565.351562 633.703125 C 564.59375 630.769531 563.578125 627.8125 562.171875 624.734375 Z M 562.171875 624.734375 " fill-opacity="1" fill-rule="nonzero"/><path fill="#f6bd21" d="M 538.675781 598.003906 C 571.449219 621.4375 575.808594 655.011719 548.421875 673.0625 C 521.039062 691.109375 472.351562 686.75 439.578125 663.3125 C 406.804688 639.878906 402.445312 606.304688 429.828125 588.257812 C 457.355469 570.308594 506.039062 574.667969 538.675781 598.003906 Z M 538.675781 598.003906 " fill-opacity="1" fill-rule="nonzero"/><path fill="#f9e05e" d="M 433.472656 586.238281 L 443.816406 665.867188 C 449.183594 669.386719 455.25 672.449219 461.644531 675.105469 L 449.292969 580.007812 C 443.449219 581.570312 438.042969 583.605469 433.472656 586.238281 Z M 491.730469 578.945312 L 505.386719 684.0625 C 511.0625 684.136719 516.558594 683.757812 521.867188 682.929688 L 508.921875 583.265625 C 503.246094 581.28125 497.523438 579.898438 491.730469 578.945312 Z M 491.730469 578.945312 " fill-opacity="1" fill-rule="nonzero"/><path fill="#e58c00" d="M 503.234375 682.042969 C 482.953125 682.050781 461.203125 675.585938 443.980469 663.273438 C 427.179688 651.257812 417.707031 635.554688 417.992188 620.292969 C 418.179688 608.148438 424.710938 597.355469 435.96875 589.9375 C 461.378906 573.1875 504.691406 576.890625 534.550781 598.242188 C 551.351562 610.257812 560.824219 625.960938 560.421875 641.300781 C 560.238281 653.445312 553.703125 664.238281 542.445312 671.65625 C 531.769531 678.691406 517.972656 682.0625 503.234375 682.042969 Z M 475.132812 591.792969 C 462.921875 591.828125 451.304688 594.523438 442.714844 600.183594 C 434.824219 605.382812 430.570312 612.386719 430.347656 620.355469 C 430.160156 631.546875 437.625 643.421875 451.09375 653.054688 C 476.648438 671.324219 514.535156 674.976562 535.539062 661.136719 C 543.429688 655.933594 547.683594 648.933594 547.90625 640.960938 C 548.09375 629.769531 540.628906 617.898438 527.160156 608.265625 C 512.160156 597.539062 492.773438 591.808594 475.132812 591.792969 Z M 475.132812 591.792969 " fill-opacity="1" fill-rule="nonzero"/><path fill="#ec9f0d" d="M 714.167969 917.5 C 688.125 922.839844 664.691406 936.53125 653.625 955.007812 C 648.199219 964.070312 646.351562 973.355469 648.003906 982.070312 L 652.621094 1006.308594 C 653.363281 1010.648438 655.089844 1014.898438 657.773438 1018.789062 C 665.519531 1030.667969 680.472656 1039.199219 699.644531 1042.535156 C 718.652344 1045.847656 740.199219 1043.675781 759.367188 1036.480469 C 778.535156 1029.285156 793.816406 1017.730469 801.953125 1004.136719 C 807.523438 994.839844 809.132812 985.640625 807.574219 977.078125 L 802.960938 952.839844 C 799.652344 935.414062 782.582031 921.121094 756.007812 916.492188 C 742.140625 914.210938 727.71875 914.726562 714.167969 917.5 Z M 714.167969 917.5 " fill-opacity="1" fill-rule="nonzero"/><path fill="#e58c00" d="M 755.765625 916.582031 C 795.460938 923.492188 813.949219 951.859375 797.101562 979.992188 C 780.25 1008.125 734.484375 1025.300781 694.792969 1018.390625 C 655.097656 1011.476562 636.609375 983.113281 653.457031 954.980469 C 670.308594 926.84375 716.070312 909.667969 755.765625 916.582031 Z M 755.765625 916.582031 " fill-opacity="1" fill-rule="nonzero"/><path fill="#e58c00" d="M 661.027344 951.953125 L 676.777344 1035.132812 C 678.605469 1036.109375 680.675781 1036.996094 682.746094 1037.882812 L 666.402344 951.046875 Z M 671.675781 949.988281 L 688.636719 1039.828125 C 690.511719 1040.417969 692.460938 1040.890625 694.40625 1041.359375 L 676.953125 948.933594 Z M 682.15625 947.996094 L 699.984375 1042.59375 C 701.832031 1042.917969 703.753906 1043.121094 705.675781 1043.324219 L 687.433594 946.941406 Z M 692.804688 946.035156 L 711.34375 1043.785156 C 713.167969 1043.839844 714.992188 1043.890625 716.816406 1043.945312 L 698.082031 944.976562 Z M 703.285156 944.039062 L 722.195312 1043.960938 C 723.925781 1043.867188 725.820312 1043.804688 727.621094 1043.589844 L 708.660156 943.132812 Z M 714.007812 941.957031 L 733.089844 1042.832031 C 734.886719 1042.617188 736.589844 1042.253906 738.390625 1042.042969 L 719.210938 941.023438 Z M 724.65625 939.996094 L 743.667969 1040.988281 C 745.367188 1040.625 747.144531 1040.144531 748.917969 1039.664062 L 729.933594 938.9375 Z M 735.136719 938.003906 L 754.070312 1038.191406 C 755.675781 1037.679688 757.523438 1037.082031 759.03125 1036.421875 C 759.03125 1036.421875 759.03125 1036.421875 759.269531 1036.332031 L 740.582031 936.976562 Z M 745.785156 936.039062 L 764.375 1034.324219 C 766.121094 1033.574219 767.703125 1032.796875 769.449219 1032.046875 L 751.15625 935.132812 Z M 756.265625 934.046875 L 774.238281 1029.328125 C 775.890625 1028.429688 777.613281 1027.414062 779.167969 1026.367188 L 761.46875 933.109375 Z M 766.914062 932.082031 L 784.144531 1023.023438 C 785.839844 1021.738281 787.300781 1020.542969 788.902344 1019.113281 L 772.191406 931.027344 Z M 777.464844 929.96875 L 793.4375 1014.636719 C 795.015625 1012.933594 796.589844 1011.234375 797.828125 1009.476562 L 782.671875 929.035156 Z M 653.910156 954.53125 C 653.839844 954.652344 653.769531 954.769531 653.625 955.007812 C 652.125 957.511719 650.964844 960.074219 649.96875 962.664062 L 661.472656 1023.777344 C 663.332031 1025.945312 665.671875 1027.933594 668.082031 1029.800781 Z M 788.511719 930.445312 L 802.261719 1003.007812 C 803.804688 1000.117188 805.183594 997.195312 806.152344 994.339844 L 795.269531 937.152344 C 793.382812 934.71875 791.019531 932.460938 788.511719 930.445312 Z M 788.511719 930.445312 " fill-opacity="1" fill-rule="nonzero"/><path fill="#f6bd21" d="M 755.753906 916.542969 C 795.449219 923.453125 813.9375 951.820312 797.085938 979.953125 C 780.234375 1008.085938 734.472656 1025.261719 694.777344 1018.351562 C 655.082031 1011.4375 636.59375 983.074219 653.445312 954.941406 C 670.460938 926.835938 716.226562 909.660156 755.753906 916.542969 Z M 755.753906 916.542969 " fill-opacity="1" fill-rule="nonzero"/><path fill="#f9e05e" d="M 655.851562 951.542969 L 699.703125 1018.8125 C 706.066406 1019.660156 712.863281 1019.789062 719.773438 1019.414062 L 667.40625 939.074219 C 662.816406 943.011719 658.828125 947.1875 655.851562 951.542969 Z M 705.1875 919.71875 L 763.074219 1008.523438 C 768.222656 1006.128906 773.007812 1003.40625 777.433594 1000.359375 L 722.550781 916.160156 C 716.574219 916.828125 710.820312 918.066406 705.1875 919.71875 Z M 705.1875 919.71875 " fill-opacity="1" fill-rule="nonzero"/><path fill="#e58c00" d="M 715.15625 1017.816406 C 709.609375 1017.773438 704.109375 1017.34375 698.558594 1016.375 C 678.207031 1012.832031 662.863281 1002.789062 656.5 988.910156 C 651.402344 977.886719 652.539062 965.445312 659.535156 953.761719 C 675.171875 927.65625 715.808594 912.21875 751.96875 918.515625 C 772.320312 922.0625 787.667969 932.105469 794.027344 945.984375 C 799.128906 957.007812 797.992188 969.449219 790.996094 981.128906 C 777.882812 1003.332031 746.582031 1017.761719 715.15625 1017.816406 Z M 735.558594 929.480469 C 708.597656 929.527344 681.222656 941.742188 670.226562 960.101562 C 665.371094 968.207031 664.574219 976.363281 667.996094 983.671875 C 672.683594 993.835938 684.558594 1001.300781 700.875 1004.140625 C 731.820312 1009.53125 767.546875 996.398438 780.472656 974.820312 C 785.328125 966.714844 786.125 958.558594 782.699219 951.25 C 778.015625 941.085938 766.140625 933.621094 749.824219 930.78125 C 745.117188 929.960938 740.359375 929.527344 735.558594 929.480469 Z M 735.558594 929.480469 " fill-opacity="1" fill-rule="nonzero"/><path fill="#ce749f" d="M 137.511719 835.164062 C 137.511719 835.164062 0.175781 939.527344 42.164062 996.082031 C 83.863281 1052.636719 179.5 1082.664062 227.027344 1046.804688 C 274.847656 1010.949219 331.414062 948.273438 331.414062 948.273438 L 331.414062 917.371094 L 256.769531 874.226562 C 256.769531 874.226562 149.46875 942.734375 155.300781 930.78125 C 161.128906 918.828125 211.867188 856.152344 211.867188 856.152344 L 211.867188 824.960938 C 204.285156 815.339844 180.667969 824.960938 137.511719 835.164062 Z M 137.511719 835.164062 " fill-opacity="1" fill-rule="nonzero"/><path fill="#ffb5d1" d="M 137.511719 803.972656 C 137.511719 803.972656 0.175781 908.335938 42.164062 964.890625 C 83.863281 1021.445312 179.5 1051.46875 227.027344 1015.613281 C 274.847656 979.757812 331.414062 917.082031 331.414062 917.082031 L 256.769531 842.453125 C 256.769531 842.453125 149.46875 910.957031 155.300781 899.007812 C 161.128906 887.054688 211.867188 824.378906 211.867188 824.378906 C 211.867188 824.378906 200.203125 789.105469 137.511719 803.972656 Z M 137.511719 803.972656 " fill-opacity="1" fill-rule="nonzero"/></svg>