<svg xmlns="http://www.w3.org/2000/svg" xmlns:xlink="http://www.w3.org/1999/xlink" width="1889" zoomAndPan="magnify" viewBox="0 0 1417.5 1417.500002" height="1889" preserveAspectRatio="xMidYMid meet" version="1.0"><defs><clipPath id="b7fc1cb68d"><path d="M 576 34.917969 L 896 34.917969 L 896 275 L 576 275 Z M 576 34.917969 " clip-rule="nonzero"/></clipPath></defs><path fill="#80b04c" d="M 199.308594 721.4375 L 257.691406 862.773438 L 266.5625 875.390625 C 282.644531 896.796875 298.183594 911.855469 339.71875 920.515625 C 380.113281 928.953125 450.425781 892.316406 450.425781 892.316406 C 450.425781 892.316406 417.757812 870.890625 390.585938 820.425781 C 363.410156 769.964844 360.703125 746.210938 360.703125 746.210938 C 360.703125 746.210938 317.386719 778.328125 283.867188 773.222656 C 242.105469 766.828125 199.308594 721.4375 199.308594 721.4375 Z M 199.308594 721.4375 " fill-opacity="1" fill-rule="nonzero"/><path fill="#3f9544" d="M 429.738281 888.453125 L 424.035156 891.203125 C 415.1875 895.285156 406.117188 898.777344 396.816406 901.683594 C 375.476562 908.445312 356.371094 911.371094 340.035156 910.371094 C 307.058594 908.34375 275.425781 885.21875 246.023438 841.605469 L 250.136719 837.292969 C 277.929688 878.5 310.15625 898.492188 340.492188 900.355469 C 369.335938 902.121094 401.890625 889.972656 414.882812 884.515625 C 407.011719 874.371094 390.261719 852.375 381.179688 837.386719 C 368.0625 815.726562 356.917969 785.335938 352.78125 773.375 C 344.566406 777.597656 325.828125 786.375 307.339844 789.554688 C 303.207031 790.261719 299.042969 790.628906 294.851562 790.65625 C 290.65625 790.683594 286.492188 790.375 282.347656 789.722656 C 278.207031 789.070312 274.144531 788.085938 270.160156 786.773438 C 266.179688 785.457031 262.332031 783.828125 258.613281 781.886719 C 247.027344 775.902344 240.417969 769.03125 240.136719 768.742188 L 245.996094 761.320312 C 246.042969 761.375 252.066406 767.574219 262.476562 772.890625 C 265.800781 774.628906 269.246094 776.085938 272.8125 777.257812 C 276.378906 778.429688 280.015625 779.304688 283.722656 779.878906 C 287.433594 780.453125 291.164062 780.71875 294.917969 780.675781 C 298.667969 780.636719 302.394531 780.289062 306.089844 779.636719 C 328.867188 775.710938 353.035156 762.214844 353.273438 762.050781 L 357.574219 759.632812 L 359.253906 764.792969 C 359.386719 765.203125 372.683594 805.734375 388.339844 831.617188 C 399.886719 850.679688 425.34375 882.824219 425.625 883.148438 Z M 429.738281 888.453125 " fill-opacity="1" fill-rule="nonzero"/><path fill="#3f9544" d="M 256.273438 851.671875 C 265.070312 863.945312 296.578125 868.246094 285.765625 832.46875 C 274.035156 793.664062 257.332031 777.019531 247.191406 768.980469 C 237.046875 760.941406 241.800781 817.808594 241.800781 817.808594 Z M 256.273438 851.671875 " fill-opacity="1" fill-rule="nonzero"/><path fill="#9acc63" d="M 266.578125 875.363281 C 266.578125 875.363281 245.621094 847.753906 254.195312 772.25 C 259.675781 724.027344 300.242188 618.136719 300.242188 618.136719 C 300.242188 618.136719 273.167969 617.753906 244.53125 601.507812 C 198.042969 575.128906 178.414062 554.589844 178.414062 554.589844 C 178.414062 554.589844 158.199219 608.617188 167.363281 660.480469 C 189.480469 785.546875 266.578125 875.363281 266.578125 875.363281 Z M 266.578125 875.363281 " fill-opacity="1" fill-rule="nonzero"/><path fill="#43a648" d="M 185.660156 572.359375 L 180.625 566.730469 L 178.90625 574.566406 C 178.480469 576.558594 168.355469 623.804688 171.480469 669.316406 C 171.9375 675.949219 172.667969 682.804688 173.589844 689.714844 C 178.917969 710.878906 185.71875 731.558594 193.988281 751.753906 C 187.566406 731.777344 176.277344 708.09375 177.105469 666.078125 C 177.808594 632.519531 182.574219 599.691406 185.296875 584.484375 C 198.847656 597.625 213.992188 608.5625 230.722656 617.304688 C 247.886719 626.121094 267.378906 632.933594 276.039062 635.792969 C 268.382812 656.371094 240.042969 734.070312 236.765625 765.464844 C 233.867188 793.246094 236.5625 820.160156 239.332031 837.851562 C 239.382812 838.140625 239.417969 838.070312 239.460938 838.355469 C 243.636719 844.792969 247.273438 849.609375 250.714844 854.535156 C 246.839844 837.078125 240.984375 802.949219 244.777344 766.609375 C 248.351562 732.394531 284.910156 635.601562 285.28125 634.628906 L 287.167969 629.644531 L 282.609375 628.238281 C 282.339844 628.160156 255.785156 619.984375 233.988281 608.792969 C 224.992188 604.082031 216.441406 598.667969 208.332031 592.554688 C 200.226562 586.441406 192.667969 579.707031 185.660156 572.359375 Z M 185.660156 572.359375 " fill-opacity="1" fill-rule="nonzero"/><path fill="#43a648" d="M 239.460938 838.34375 C 238.757812 829.199219 228.445312 780.128906 210.617188 754.222656 C 192.792969 728.316406 185.296875 724.554688 188.96875 737.425781 C 192.640625 750.296875 196.945312 763.015625 210.21875 789.035156 C 219.027344 806.027344 228.773438 822.464844 239.460938 838.34375 Z M 239.460938 838.34375 " fill-opacity="1" fill-rule="nonzero"/><path fill="#43a648" d="M 211.527344 657.738281 C 217.308594 661.34375 220.289062 667.894531 218.195312 672.359375 C 216.097656 676.828125 209.710938 677.523438 203.929688 673.914062 C 198.148438 670.308594 195.164062 663.757812 197.261719 659.292969 C 199.355469 654.824219 205.777344 654.128906 211.527344 657.738281 Z M 211.527344 657.738281 " fill-opacity="1" fill-rule="nonzero"/><path fill="#3f9544" d="M 341.339844 831.007812 C 344.058594 837.898438 343.019531 845.199219 339.003906 847.304688 C 334.984375 849.40625 329.535156 845.523438 326.8125 838.625 C 324.089844 831.722656 325.136719 824.429688 329.148438 822.320312 C 333.15625 820.207031 338.617188 824.132812 341.339844 831.007812 Z M 341.339844 831.007812 " fill-opacity="1" fill-rule="nonzero"/><path fill="#3f9544" d="M 413.398438 890.621094 C 398.324219 895.78125 397.984375 874.210938 412.257812 874.441406 C 427.453125 874.707031 426.015625 898.457031 409.984375 892.898438 Z M 413.398438 890.621094 " fill-opacity="1" fill-rule="nonzero"/><path fill="#3f9544" d="M 358.683594 779.117188 C 363.425781 790.695312 341.800781 793.113281 339.894531 777.710938 C 337.503906 758.757812 363.109375 766.664062 360.726562 778.636719 Z M 358.683594 779.117188 " fill-opacity="1" fill-rule="nonzero"/><path fill="#43a648" d="M 276.222656 650.195312 C 271.773438 655.085938 267.582031 661.449219 261.546875 655.449219 C 256.835938 650.746094 255.441406 639.6875 260.042969 634.695312 C 263.820312 630.59375 273.222656 631.210938 277.726562 633.1875 C 285.554688 636.628906 282.101562 642.867188 279.722656 649.597656 Z M 276.222656 650.195312 " fill-opacity="1" fill-rule="nonzero"/><path fill="#43a648" d="M 195.75 590.132812 C 200.8125 597.828125 181.019531 612.847656 178.867188 596.183594 C 178.519531 593.542969 179.570312 582.59375 181.300781 580.707031 C 185.464844 576.226562 191.457031 584.324219 192.992188 587.609375 Z M 195.75 590.132812 " fill-opacity="1" fill-rule="nonzero"/><path fill="#80b04c" d="M 947.902344 348.683594 C 929.09375 322.65625 909.917969 296.355469 895.355469 273.828125 L 871.371094 237.046875 L 783.375 138 L 827.347656 273.707031 C 827.347656 273.707031 863.492188 321.476562 926.132812 365.648438 C 969.210938 396.023438 1000.042969 407.148438 1000.042969 407.148438 C 1000.042969 407.148438 965.804688 373.441406 947.902344 348.683594 Z M 947.902344 348.683594 " fill-opacity="1" fill-rule="nonzero"/><path fill="#3f9544" d="M 911.515625 349.992188 C 898.894531 340.667969 886.894531 330.601562 875.519531 319.792969 C 850.019531 295.230469 831.90625 274.53125 831.90625 274.53125 C 831.90625 274.53125 823.394531 252.796875 819.386719 241.167969 C 815.785156 230.695312 807.882812 203.085938 807.714844 201.996094 L 814.046875 201.238281 C 814.046875 201.496094 823.550781 228.761719 826.925781 238.566406 C 830.445312 248.878906 837.386719 266.703125 838.800781 270.296875 C 841.699219 273.566406 858.082031 291.898438 881.046875 314.011719 C 901.082031 333.308594 934.375 358.382812 950.140625 368.78125 C 935.8125 354.621094 913.046875 324.527344 904.972656 313.210938 C 886.105469 286.75 857.316406 234.914062 857.027344 234.429688 L 864.023438 230.546875 C 864.308594 231.0625 892.867188 282.507812 911.492188 308.625 C 924.859375 327.378906 959.390625 372.488281 959.734375 372.9375 L 971.839844 388.75 L 954.5625 378.84375 C 939.703125 369.992188 925.351562 360.375 911.515625 349.992188 Z M 911.515625 349.992188 " fill-opacity="1" fill-rule="nonzero"/><path fill="#3f9544" d="M 811.507812 203.832031 C 813.105469 209.945312 821.972656 223.648438 835.421875 231.554688 C 848.875 239.460938 867.980469 245.683594 863.617188 236.273438 C 859.257812 226.859375 811.507812 203.832031 811.507812 203.832031 Z M 811.507812 203.832031 " fill-opacity="1" fill-rule="nonzero"/><g clip-path="url(#b7fc1cb68d)"><path fill="#9acc63" d="M 576.320312 34.917969 C 576.320312 34.917969 642.246094 40.542969 667.667969 49.449219 C 742.5 75.714844 792.027344 124.867188 797.605469 129.03125 C 815.613281 142.46875 895.757812 274.417969 895.757812 274.417969 C 895.757812 274.417969 858.644531 210.175781 762.597656 193.597656 C 714.417969 185.285156 668.335938 181.757812 668.335938 181.757812 Z M 576.320312 34.917969 " fill-opacity="1" fill-rule="nonzero"/></g><path fill="#43a648" d="M 868.414062 230.421875 C 864.0625 223.507812 862.683594 221.113281 857.863281 213.628906 C 842.972656 204.4375 816.242188 187.5 784.171875 178.691406 C 752.101562 169.886719 694.132812 163.386719 681.765625 162.058594 L 607.996094 52.179688 C 615.179688 52.882812 625.792969 54.148438 638.097656 56.527344 C 658.9375 60.5625 691 68.625 717.167969 82.234375 C 735.273438 91.726562 752.65625 102.402344 769.308594 114.253906 C 785.964844 126.109375 801.742188 139.035156 816.640625 153.03125 C 816.253906 151.710938 814.988281 149.367188 809.046875 141.609375 C 783.566406 118.75 751.644531 93.53125 719.222656 75.996094 C 691.914062 61.222656 661.472656 51.109375 639.734375 46.925781 C 616.289062 42.410156 599.230469 41.746094 598.519531 41.71875 L 588.976562 41.375 L 676.203125 171.277344 L 678.480469 171.511719 C 679.183594 171.582031 747.128906 178.628906 781.574219 188.089844 C 815.011719 197.277344 838.652344 209.9375 852.621094 218.941406 C 858.113281 222.457031 863.375 226.285156 868.414062 230.421875 Z M 868.414062 230.421875 " fill-opacity="1" fill-rule="nonzero"/><path fill="#43a648" d="M 812.554688 146.757812 C 802.417969 138.886719 788.878906 130.628906 794.152344 148.726562 C 802.425781 177.109375 841.179688 209.058594 851.90625 216.140625 C 862.632812 223.226562 866.882812 227.007812 866.09375 226.417969 C 865.304688 225.828125 854.136719 208.242188 841.324219 188.238281 C 828.515625 168.234375 812.554688 146.757812 812.554688 146.757812 Z M 812.554688 146.757812 " fill-opacity="1" fill-rule="nonzero"/><path fill="#43a648" d="M 713.941406 111.136719 C 718.0625 118.410156 718.5625 125.910156 715.066406 127.894531 C 711.570312 129.875 705.386719 125.585938 701.265625 118.3125 C 697.140625 111.039062 696.644531 103.539062 700.140625 101.550781 C 703.636719 99.558594 709.820312 103.851562 713.941406 111.136719 Z M 713.941406 111.136719 " fill-opacity="1" fill-rule="nonzero"/><path fill="#3f9544" d="M 870.027344 280.4375 C 875.652344 286.644531 878.753906 292.953125 877.019531 294.507812 C 875.28125 296.0625 869.328125 292.3125 863.730469 286.101562 C 858.128906 279.890625 855 273.59375 856.738281 272.035156 C 858.476562 270.472656 864.425781 274.226562 870.027344 280.4375 Z M 870.027344 280.4375 " fill-opacity="1" fill-rule="nonzero"/><path fill="#43a648" d="M 618.808594 48.183594 C 625.914062 52.15625 638.460938 67.503906 621.996094 68.476562 C 609.992188 69.179688 606.378906 57.144531 601.285156 49.371094 C 604.097656 43.855469 614.347656 47.710938 617.148438 48.113281 Z M 618.808594 48.183594 " fill-opacity="1" fill-rule="nonzero"/><path fill="#43a648" d="M 677.402344 164.917969 C 666.851562 152.960938 675.84375 137.226562 690.769531 148.507812 C 695.335938 151.964844 700.617188 158.820312 697.058594 164.765625 C 692.835938 171.882812 684.324219 167.347656 678.25 166.339844 C 677.136719 165.160156 678.613281 165.757812 679.070312 164.988281 Z M 677.402344 164.917969 " fill-opacity="1" fill-rule="nonzero"/><path fill="#3f9544" d="M 930.421875 360.59375 C 928.902344 356.5 925.019531 352.855469 924.050781 348.773438 C 921.996094 340.125 929.015625 340.230469 934.769531 345.097656 C 942.65625 351.765625 948.992188 363.433594 949.542969 373.5625 C 940.839844 369.785156 934.234375 362.582031 925.785156 358.046875 C 925.316406 356.851562 926.386719 358.046875 926.90625 357.777344 Z M 930.421875 360.59375 " fill-opacity="1" fill-rule="nonzero"/><path fill="#3f9544" d="M 830.359375 263.402344 C 840.023438 254.960938 852.574219 270.945312 844.914062 279.835938 C 837.476562 278.886719 832.953125 270.738281 831.660156 264.121094 Z M 830.359375 263.402344 " fill-opacity="1" fill-rule="nonzero"/><path fill="#3f9544" d="M 418.425781 1195.785156 C 411.589844 1183.507812 426.164062 1161.792969 438.125 1177.042969 C 446.71875 1187.984375 430.300781 1204.625 420.539062 1199.828125 Z M 418.425781 1195.785156 " fill-opacity="1" fill-rule="nonzero"/><path fill="#a1c486" d="M 682.574219 937.226562 C 679.367188 942.953125 636.546875 957.335938 596.683594 1033.507812 C 578.753906 1067.777344 585.710938 1141.613281 585.710938 1141.613281 L 401.480469 1232.210938 C 401.480469 1232.210938 392.484375 1195.285156 397.683594 1148.105469 C 409.773438 1038.328125 450.441406 1001.011719 450.441406 1001.011719 L 479.984375 977.523438 Z M 682.574219 937.226562 " fill-opacity="1" fill-rule="nonzero"/><path fill="#3f9544" d="M 624.40625 975.253906 C 624.40625 975.253906 588.664062 1015.214844 580.660156 1047.894531 C 574.105469 1074.679688 574.808594 1136.121094 574.808594 1136.121094 L 413.335938 1213.621094 C 413.335938 1213.621094 406.609375 1132.25 418.792969 1094.980469 C 456.855469 978.480469 482.933594 978.503906 482.933594 978.503906 L 494.503906 974.773438 C 494.503906 974.773438 449.316406 1021.148438 431.011719 1093.226562 C 416.773438 1149.28125 424.679688 1196.191406 424.679688 1196.191406 L 564.898438 1130.070312 C 564.898438 1130.070312 563.449219 1077.816406 570.75 1048.300781 C 578.050781 1018.785156 612.539062 973.472656 612.539062 973.472656 Z M 624.40625 975.253906 " fill-opacity="1" fill-rule="nonzero"/><path fill="#3f9544" d="M 624.113281 951.097656 C 612.710938 965.59375 593.597656 993.851562 570.855469 1007.484375 C 555.316406 1016.796875 512.6875 1030.660156 496.917969 1025.066406 C 486.167969 1021.277344 474.828125 1008.890625 488.910156 988.632812 C 502.996094 968.375 520.917969 949.796875 520.917969 949.796875 Z M 624.113281 951.097656 " fill-opacity="1" fill-rule="nonzero"/><path fill="#a1c486" d="M 488.996094 1011.984375 L 493.355469 996.277344 L 525.777344 987.949219 C 526 986.152344 526.363281 984.382812 526.875 982.644531 C 528.226562 977.75 530.253906 973.152344 532.957031 968.851562 C 535.664062 964.554688 538.929688 960.738281 542.757812 957.402344 C 546.132812 954.535156 549.789062 952.09375 553.726562 950.074219 C 557.664062 948.054688 561.777344 946.511719 566.070312 945.441406 C 574.949219 943.164062 581.644531 944.246094 584.972656 947.554688 C 588.488281 950.992188 588.996094 957.335938 586.28125 967.121094 C 584.28125 974.648438 581.667969 981.953125 578.4375 989.039062 Z M 568.414062 977.003906 C 569.558594 974.851562 570.4375 972.597656 571.042969 970.238281 C 573.238281 962.332031 569.503906 959.128906 561.195312 961.277344 C 551.917969 963.660156 544.953125 970.28125 542.613281 978.707031 C 542.0625 980.386719 541.75 982.109375 541.675781 983.875 Z M 568.414062 977.003906 " fill-opacity="1" fill-rule="nonzero"/><path fill="#a1c486" d="M 541.957031 994 L 537.179688 1011.167969 L 559.382812 1005.472656 L 564.152344 988.300781 Z M 541.957031 994 " fill-opacity="1" fill-rule="nonzero"/><path fill="#a1c486" d="M 557.460938 938.199219 L 552.691406 955.367188 L 574.886719 949.671875 L 579.65625 932.5 Z M 557.460938 938.199219 " fill-opacity="1" fill-rule="nonzero"/><path fill="#9acc63" d="M 875.328125 896.421875 L 703.53125 1023.738281 C 703.53125 1023.738281 632.257812 986.273438 590.804688 982.496094 C 488.804688 973.191406 450.207031 1001.242188 450.207031 1001.242188 C 450.207031 1001.242188 477.964844 966.355469 544.617188 933.011719 C 646.128906 882.152344 729.839844 858.121094 729.839844 858.121094 C 729.839844 858.121094 761.640625 853.902344 792.191406 861.582031 C 822.742188 869.265625 875.328125 896.421875 875.328125 896.421875 Z M 875.328125 896.421875 " fill-opacity="1" fill-rule="nonzero"/><path fill="#43a648" d="M 467.394531 984.046875 C 467.394531 984.046875 509.601562 961.277344 573.941406 965.484375 C 611.519531 967.929688 699.15625 1007.023438 699.15625 1007.023438 L 853.578125 898.265625 C 853.578125 898.265625 814.734375 879.429688 790.222656 871.183594 C 753.199219 858.714844 717.175781 861.75 717.175781 861.75 L 696.578125 868.671875 C 696.578125 868.671875 722.816406 865.507812 771.804688 878.367188 C 790.613281 883.289062 828.113281 901.628906 827.109375 901.832031 C 826.101562 902.035156 696.699219 992.871094 696.699219 992.871094 C 696.699219 992.871094 611.914062 960.785156 582.34375 956.824219 C 524.96875 949.128906 482.566406 970.890625 482.566406 970.890625 Z M 467.394531 984.046875 " fill-opacity="1" fill-rule="nonzero"/><path fill="#43a648" d="M 512.421875 950.78125 C 512.421875 950.78125 527.25 949.171875 567.992188 937.269531 C 599.429688 928.125 629.289062 907.09375 631.765625 900.3125 C 633.382812 895.886719 632.292969 894.234375 631.335938 893.621094 C 605.253906 904.316406 575.492188 917.488281 544.019531 933.246094 C 532.304688 939.105469 521.789062 945.019531 512.421875 950.78125 Z M 512.421875 950.78125 " fill-opacity="1" fill-rule="nonzero"/><path fill="#3f9544" d="M 482.230469 1112.121094 C 479.132812 1105.621094 484.101562 1096.785156 493.320312 1092.425781 C 502.542969 1088.0625 512.53125 1089.746094 515.628906 1096.25 C 518.722656 1102.757812 513.75 1111.585938 504.527344 1115.945312 C 495.304688 1120.308594 485.324219 1118.628906 482.230469 1112.121094 Z M 482.230469 1112.121094 " fill-opacity="1" fill-rule="nonzero"/><path fill="#43a648" d="M 684.746094 932.09375 C 680.625 925.402344 684.332031 915.632812 693.027344 910.285156 C 701.722656 904.941406 712.117188 906.003906 716.242188 912.699219 C 720.363281 919.394531 716.65625 929.160156 707.960938 934.503906 C 699.265625 939.851562 688.878906 938.789062 684.746094 932.09375 Z M 684.746094 932.09375 " fill-opacity="1" fill-rule="nonzero"/><path fill="#3f9544" d="M 570.214844 1127.363281 C 574.433594 1110.480469 559.5 1107.167969 553.457031 1122.757812 C 550.878906 1129.410156 548.40625 1135.164062 556.589844 1137.140625 C 562.160156 1138.484375 569.214844 1133.625 569.917969 1129.164062 Z M 570.214844 1127.363281 " fill-opacity="1" fill-rule="nonzero"/><path fill="#43a648" d="M 708.207031 991.03125 C 718.054688 985.355469 707.382812 977.917969 700.378906 976.800781 C 693.371094 975.683594 683.011719 976.097656 677.296875 981.097656 C 669.492188 987.933594 677.902344 992.816406 686.054688 996.425781 C 693.957031 999.941406 698.921875 998.058594 705.964844 993.4375 Z M 708.207031 991.03125 " fill-opacity="1" fill-rule="nonzero"/><path fill="#43a648" d="M 842.695312 898.496094 L 843.140625 895.796875 C 831.785156 891.851562 794.511719 882.261719 804.175781 907.882812 C 811.105469 926.246094 833.996094 906.433594 842.695312 898.496094 Z M 842.695312 898.496094 " fill-opacity="1" fill-rule="nonzero"/><path fill="#80b04c" d="M 1163.433594 1235.941406 C 1173.101562 1228.90625 1196.898438 1212.460938 1217.761719 1152.9375 C 1231.351562 1114.179688 1229.367188 1063.515625 1229.367188 1063.515625 L 987.386719 1216.359375 L 988.421875 1318.113281 Z M 1163.433594 1235.941406 " fill-opacity="1" fill-rule="nonzero"/><path fill="#3f9544" d="M 1146.769531 1244.632812 C 1132.394531 1258.21875 1121.089844 1265.84375 1120.582031 1266.179688 L 1113.957031 1255.628906 C 1114.074219 1255.550781 1126.449219 1247.1875 1141.304688 1232.65625 C 1154.867188 1219.402344 1173.359375 1198.148438 1184.425781 1172.164062 C 1194.050781 1149.5625 1199.488281 1121.039062 1202.011719 1104.847656 C 1157.855469 1132.878906 1018.414062 1221.402344 1015.769531 1222.941406 L 1009.875 1211.90625 C 1013.230469 1209.886719 1140.371094 1129.191406 1207.132812 1086.8125 L 1218.128906 1079.835938 L 1216.785156 1092.335938 C 1216.574219 1094.3125 1211.425781 1141.078125 1196.433594 1176.3125 C 1184.375 1204.632812 1164.433594 1227.550781 1149.832031 1241.777344 C 1148.769531 1242.734375 1147.761719 1243.707031 1146.769531 1244.632812 Z M 1146.769531 1244.632812 " fill-opacity="1" fill-rule="nonzero"/><path fill="#9acc63" d="M 623.253906 1265.433594 C 623.253906 1265.433594 682.433594 1269.007812 724.90625 1299.402344 C 747.09375 1315.277344 789.699219 1351.855469 842.023438 1385.6875 C 889.960938 1416.679688 935.101562 1405.179688 935.101562 1405.179688 L 1163.675781 1235.75 C 1163.675781 1235.75 1106.191406 1259.941406 1030.949219 1220.980469 C 988.746094 1199.171875 912.070312 1135.585938 886.042969 1120.222656 C 837.710938 1091.730469 800.222656 1106.859375 800.222656 1106.859375 Z M 623.253906 1265.433594 " fill-opacity="1" fill-rule="nonzero"/><path fill="#43a648" d="M 1061.515625 1248.652344 C 1007.265625 1232.621094 961.972656 1198.082031 918.167969 1164.6875 C 902.179688 1152.496094 887.085938 1140.988281 871.742188 1130.523438 C 835.289062 1105.621094 803.21875 1120.394531 801.871094 1121.039062 L 800.855469 1121.519531 L 646.75 1258.132812 L 659.480469 1260.945312 C 659.980469 1261.058594 709.839844 1272.292969 730.617188 1288.675781 C 771.117188 1320.617188 807.152344 1348.640625 838.003906 1368.109375 C 871.066406 1388.980469 897.09375 1399.191406 919.890625 1400.234375 C 927.210938 1400.558594 934.527344 1400.492188 941.839844 1400.039062 L 960.066406 1386.378906 C 951.820312 1387.785156 940.046875 1386.910156 921.761719 1386.074219 C 878.4375 1384.097656 824.203125 1343.652344 740.039062 1277.28125 C 723.703125 1264.398438 693.238281 1254.855469 676.132812 1250.21875 L 807.984375 1133.382812 C 813.09375 1131.535156 818.367188 1130.523438 823.804688 1130.351562 C 837.316406 1129.816406 850.535156 1133.871094 863.039062 1142.429688 C 878.085938 1152.714844 893.054688 1164.128906 908.90625 1176.195312 C 930.789062 1192.878906 953.410156 1210.125 977.644531 1225.332031 C 1005.28125 1242.6875 1031.042969 1254.757812 1056.429688 1262.253906 C 1078.8125 1268.867188 1100.28125 1270.300781 1117.566406 1269.773438 L 1139.054688 1253.84375 C 1122.03125 1256.171875 1092.535156 1257.816406 1061.515625 1248.652344 Z M 1061.515625 1248.652344 " fill-opacity="1" fill-rule="nonzero"/><path fill="#43a648" d="M 1076.414062 1263.15625 C 1047.953125 1255.785156 986.375 1244.453125 918.703125 1316.613281 C 866.9375 1371.84375 899.367188 1391.84375 920.382812 1393.882812 C 929.050781 1394.726562 941.15625 1394.085938 954.523438 1390.660156 L 1078.902344 1298.570312 C 1086.851562 1291.285156 1093.359375 1267.542969 1076.414062 1263.15625 Z M 1076.414062 1263.15625 " fill-opacity="1" fill-rule="nonzero"/><path fill="#43a648" d="M 1076.414062 1263.15625 C 1047.953125 1255.785156 986.375 1244.453125 918.703125 1316.613281 C 866.9375 1371.84375 899.367188 1391.84375 920.382812 1393.882812 C 929.050781 1394.726562 941.15625 1394.085938 954.523438 1390.660156 L 1078.902344 1298.570312 C 1086.851562 1291.285156 1093.359375 1267.542969 1076.414062 1263.15625 Z M 1076.414062 1263.15625 " fill-opacity="1" fill-rule="nonzero"/><path fill="#43a648" d="M 855.800781 1222.441406 C 862.386719 1229.40625 858.617188 1243.65625 847.359375 1254.257812 C 836.105469 1264.855469 821.691406 1267.8125 815.109375 1260.847656 C 808.523438 1253.882812 812.292969 1239.632812 823.550781 1229.027344 C 834.804688 1218.417969 849.226562 1215.472656 855.800781 1222.441406 Z M 855.800781 1222.441406 " fill-opacity="1" fill-rule="nonzero"/><path fill="#3f9544" d="M 1118.914062 1204.535156 C 1121.8125 1211.074219 1113.070312 1221.984375 1099.378906 1228.890625 C 1085.691406 1235.800781 1072.25 1236.089844 1069.359375 1229.539062 C 1066.46875 1222.992188 1075.203125 1212.089844 1088.890625 1205.179688 C 1102.582031 1198.273438 1116.023438 1197.984375 1118.914062 1204.535156 Z M 1118.914062 1204.535156 " fill-opacity="1" fill-rule="nonzero"/><path fill="#43a648" d="M 683.339844 1262.199219 C 691.316406 1259.917969 701.589844 1258.828125 704.183594 1250.164062 C 706.738281 1241.636719 699.527344 1233.195312 690.875 1233.640625 C 675.511719 1234.433594 654.902344 1259.820312 681.890625 1260.664062 Z M 683.339844 1262.199219 " fill-opacity="1" fill-rule="nonzero"/><path fill="#43a648" d="M 788.179688 1145.785156 C 796.101562 1148.597656 805.589844 1149.441406 813.644531 1146.742188 C 818.652344 1145.0625 835.164062 1137.105469 833.828125 1129.929688 C 831.679688 1118.394531 791.429688 1129.734375 795.003906 1142.253906 Z M 788.179688 1145.785156 " fill-opacity="1" fill-rule="nonzero"/><path fill="#3f9544" d="M 1187.105469 1107.21875 C 1172.191406 1118.238281 1178.460938 1146.609375 1198.359375 1131.40625 C 1204.285156 1126.890625 1211.980469 1114.957031 1209.941406 1107.019531 C 1207.363281 1097.019531 1199.664062 1101.640625 1193.148438 1104.410156 Z M 1187.105469 1107.21875 " fill-opacity="1" fill-rule="nonzero"/><path fill="#9acc63" d="M 1019.878906 1277.601562 L 1002.59375 1293.921875 L 1007.746094 1299.378906 L 983.125 1322.59375 L 977.96875 1317.132812 L 920.75 1371.164062 L 937.886719 1389.304688 L 973.761719 1355.390625 C 975.386719 1357.769531 977.207031 1359.992188 979.214844 1362.058594 C 981.128906 1364.101562 983.164062 1366.007812 985.324219 1367.785156 L 1006.5625 1352.066406 C 1002.644531 1350.746094 999.300781 1348.554688 996.53125 1345.480469 C 994.035156 1342.835938 992.367188 1340.777344 991.339844 1338.792969 L 1020.996094 1310.796875 C 1022.691406 1311.691406 1025.519531 1313.792969 1029.039062 1317.519531 C 1033.089844 1321.8125 1035.09375 1326.375 1035.128906 1330.886719 L 1056.230469 1315.257812 C 1053.269531 1309.773438 1049.617188 1304.804688 1045.265625 1300.34375 C 1034.785156 1289.210938 1026.398438 1282.125 1019.878906 1277.601562 Z M 1019.878906 1277.601562 " fill-opacity="1" fill-rule="nonzero"/><path fill="#9acc63" d="M 1007.746094 1299.378906 L 1002.59375 1293.921875 L 989.027344 1279.550781 L 964.441406 1302.769531 L 978.003906 1317.140625 L 983.160156 1322.59375 Z M 1007.746094 1299.378906 " fill-opacity="1" fill-rule="nonzero"/><path fill="#9acc63" d="M 603.21875 402.289062 C 603.21875 402.289062 655.730469 395.453125 711.402344 417.996094 C 756.570312 436.285156 880.226562 502.582031 916.699219 515.769531 C 983.433594 539.839844 1044.078125 540.28125 1044.078125 540.28125 L 1081.148438 737.882812 C 1081.148438 737.882812 1026.011719 740.695312 969.0625 728.886719 C 911.378906 716.929688 813.316406 634.863281 733.988281 622.257812 C 682.609375 614.070312 588.019531 637.027344 588.019531 637.027344 Z M 603.21875 402.289062 " fill-opacity="1" fill-rule="nonzero"/><path fill="#43a648" d="M 600.730469 616.707031 L 617.441406 417.609375 L 621.207031 416.855469 C 622.839844 416.535156 661.863281 409.226562 731.253906 438.515625 C 752.960938 447.660156 783.058594 462.210938 814.960938 477.597656 C 856.992188 497.890625 900.457031 518.871094 926.390625 528.242188 C 963.265625 541.605469 1031.582031 549.246094 1032.265625 549.34375 L 1036 549.75 L 1070.898438 728.722656 L 1065.046875 729.046875 C 1064.496094 729.046875 1051.320312 729.75 1029.671875 727.550781 C 1000.1875 724.453125 971.433594 718.074219 943.40625 708.410156 C 911.984375 697.585938 884.433594 680.824219 855.269531 663.074219 C 814.46875 638.253906 772.261719 612.59375 718.757812 604.847656 C 678.550781 599.03125 608.277344 614.976562 607.574219 615.140625 Z M 626.953125 426.410156 L 612.070312 603.722656 C 631.105469 599.777344 685.226562 589.695312 720.195312 594.746094 C 775.765625 602.792969 818.871094 629.011719 860.542969 654.359375 C 889.230469 671.8125 916.324219 688.300781 946.707031 698.765625 C 999.519531 716.964844 1043.210938 718.90625 1058.554688 718.953125 L 1027.390625 559.0625 C 1012.316406 557.257812 956.28125 549.976562 922.890625 537.871094 C 896.46875 528.289062 852.761719 507.195312 810.5 486.789062 C 778.746094 471.460938 748.761719 456.984375 727.285156 447.917969 C 692.703125 433.324219 666.234375 428.378906 650.117188 426.816406 C 642.410156 425.976562 634.6875 425.839844 626.953125 426.410156 Z M 626.953125 426.410156 " fill-opacity="1" fill-rule="nonzero"/><path fill="#43a648" d="M 840.066406 495.28125 C 817.695312 486.367188 788.457031 493.824219 782.347656 539.980469 C 776.242188 586.136719 809.460938 633.667969 832.835938 646.46875 C 856.210938 659.269531 894.644531 634.285156 896.339844 599.644531 C 898.035156 565 890.820312 515.503906 840.066406 495.28125 Z M 840.066406 495.28125 " fill-opacity="1" fill-rule="nonzero"/><path fill="#43a648" d="M 713.722656 521.988281 C 712.316406 530.328125 706.414062 536.292969 700.496094 535.308594 C 694.582031 534.324219 690.917969 526.769531 692.304688 518.429688 C 693.6875 510.085938 699.589844 504.085938 705.527344 505.097656 C 711.464844 506.113281 715.109375 513.644531 713.722656 521.988281 Z M 713.722656 521.988281 " fill-opacity="1" fill-rule="nonzero"/><path fill="#43a648" d="M 1000.429688 627.84375 C 1000.308594 636.285156 995.351562 643.085938 989.355469 643 C 983.363281 642.917969 978.601562 635.96875 978.714844 627.527344 C 978.824219 619.085938 983.792969 612.277344 989.785156 612.359375 C 995.777344 612.445312 1000.542969 619.386719 1000.429688 627.84375 Z M 1000.429688 627.84375 " fill-opacity="1" fill-rule="nonzero"/><path fill="#43a648" d="M 644.636719 420.691406 C 658.601562 433.902344 644.757812 463.914062 625.554688 454.300781 C 618.035156 450.542969 616.507812 439.835938 618.265625 431.839844 C 621.078125 419.003906 630.929688 423.398438 637.183594 420.316406 Z M 644.636719 420.691406 " fill-opacity="1" fill-rule="nonzero"/><path fill="#43a648" d="M 1059.390625 704.605469 L 1057.554688 703.902344 C 1042.78125 686.226562 1026.925781 705.949219 1041.789062 720.550781 C 1046.011719 724.679688 1056.371094 729.941406 1062.710938 725.382812 C 1069.371094 720.578125 1063.597656 709.359375 1059.390625 704.605469 Z M 1059.390625 704.605469 " fill-opacity="1" fill-rule="nonzero"/><path fill="#43a648" d="M 1031.402344 560.042969 C 1028.539062 554.132812 1024.445312 554.1875 1017 555.601562 L 1015.230469 553.648438 C 1008.285156 559.550781 1005.378906 565.570312 1011.710938 573.40625 C 1015.769531 578.40625 1024.578125 582.480469 1030.183594 577.765625 C 1034.53125 574.136719 1033.882812 565.175781 1031.402344 560.042969 Z M 1031.402344 560.042969 " fill-opacity="1" fill-rule="nonzero"/><path fill="#9acc63" d="M 829.804688 513.808594 C 832.792969 514.117188 837.027344 515.382812 843.042969 518.527344 C 849.054688 521.671875 853.59375 526.839844 856.714844 534.121094 C 859.71875 541.007812 861.964844 550.941406 862.394531 561.492188 C 862.824219 572.042969 861.761719 580.25 859.425781 584.976562 C 856.378906 591.046875 851.539062 591.96875 845.714844 588.929688 C 844.503906 588.308594 843.378906 587.5625 842.332031 586.695312 L 843.898438 625.21875 L 834.136719 620.148438 Z M 841.566406 567.828125 C 842.535156 568.808594 843.644531 569.597656 844.890625 570.191406 C 850.132812 572.929688 853.101562 568.082031 852.628906 557.03125 C 852.222656 547.121094 849.203125 539.75 844.285156 537.179688 C 842.28125 536.132812 840.9375 535.90625 840.25 536.011719 Z M 841.566406 567.828125 " fill-opacity="1" fill-rule="nonzero"/><path fill="#9acc63" d="M 834.574219 560.265625 L 823.902344 554.6875 L 822.824219 528.3125 L 833.496094 533.882812 Z M 834.574219 560.265625 " fill-opacity="1" fill-rule="nonzero"/><path fill="#9acc63" d="M 869.265625 578.378906 L 858.585938 572.800781 L 857.511719 546.421875 L 868.191406 552 Z M 869.265625 578.378906 " fill-opacity="1" fill-rule="nonzero"/><path fill="#43a648" d="M 635.488281 580.882812 C 627.636719 572.394531 618.078125 575.75 612.203125 585.441406 L 609.585938 611.222656 L 632.285156 604.441406 C 640.789062 610.160156 640.980469 586.828125 635.488281 580.882812 Z M 635.488281 580.882812 " fill-opacity="1" fill-rule="nonzero"/></svg>